<?xml version="1.0" encoding="UTF-8"?>
<svg xmlns="http://www.w3.org/2000/svg" xmlns:xlink="http://www.w3.org/1999/xlink" width="30px" height="30px" viewBox="0 0 30 30" version="1.1">
<g id="surface1">
<path style=" stroke:none;fill-rule:nonzero;fill:rgb(0%,0%,0%);fill-opacity:1;" d="M 6 9.601562 C 6 14.699219 10.199219 18.601562 15 18.601562 C 19.800781 18.601562 24 14.398438 24 9.601562 C 24 4.800781 20.101562 0.300781 15 0.300781 C 9.898438 0.300781 6 4.5 6 9.601562 Z M 20.101562 9.601562 C 20.101562 12.300781 18 14.398438 15.300781 14.398438 C 12.601562 14.398438 10.5 12.300781 10.5 9.601562 C 10.5 6.898438 12.601562 4.800781 15.300781 4.800781 C 18 4.800781 20.101562 6.898438 20.101562 9.601562 Z M 20.101562 9.601562 "/>
<path style=" stroke:none;fill-rule:nonzero;fill:rgb(0%,0%,0%);fill-opacity:1;" d="M 6 21.300781 L 15 29.699219 L 24 21.300781 L 24 15.898438 L 15 24 L 6 15.898438 Z M 6 21.300781 "/>
</g>
</svg>
