<?xml version="1.0" encoding="utf-8"?>
<!-- Generator: Adobe Illustrator 27.9.0, SVG Export Plug-In . SVG Version: 6.00 Build 0)  -->
<svg version="1.1" id="Capa_1" xmlns="http://www.w3.org/2000/svg" xmlns:xlink="http://www.w3.org/1999/xlink" x="0px" y="0px"
	 viewBox="0 0 40 60" style="enable-background:new 0 0 40 60;" xml:space="preserve">
<style type="text/css">
	.st0{fill:#00CE7C;}
</style>
<g>
	<path class="st0" d="M1.4,18.8c0,10.3,8.3,18.6,18.6,18.6s18.6-8.3,18.6-18.6S30.3,0.2,20,0.2C9.7,0.2,1.4,8.5,1.4,18.8z
		 M30.1,18.8c0,5.6-4.5,10.1-10.1,10.1c-5.6,0-10.1-4.5-10.1-10.1S14.4,8.7,20,8.7C25.6,8.7,30.1,13.2,30.1,18.8z"/>
	<polygon class="st0" points="1.4,43 20,59.8 38.6,43.2 38.6,32 20,48.7 1.4,31.9 	"/>
</g>
</svg>
